<svg xmlns="http://www.w3.org/2000/svg" viewBox="0 0 1000 1000" role="img" aria-labelledby="title desc">
  <title id="title">Cachet officiel Accès Canada</title>
  <desc id="desc">Cachet clair à fond transparent, contours bleu marine et dorés, monogramme AC et feuille d’érable.</desc>
  <defs><path id="top" d="M145 500a355 355 0 0 1 710 0"/><path id="bottom" d="M855 500a355 355 0 0 1-710 0"/></defs>
  <circle cx="500" cy="500" r="465" fill="#fff" fill-opacity=".82" stroke="#d4af37" stroke-width="22"/>
  <circle cx="500" cy="500" r="430" fill="none" stroke="#0b1d36" stroke-width="13"/>
  <circle cx="500" cy="500" r="315" fill="none" stroke="#d4af37" stroke-width="7" stroke-dasharray="5 17"/>
  <text fill="#0b1d36" font-family="Georgia,serif" font-size="78" font-weight="700" letter-spacing="10"><textPath href="#top" startOffset="50%" text-anchor="middle">ACCÈS CANADA</textPath></text>
  <text fill="#0b1d36" font-family="Georgia,serif" font-size="48" font-weight="700" letter-spacing="6"><textPath href="#bottom" startOffset="50%" text-anchor="middle">DOCUMENT OFFICIEL</textPath></text>
  <path fill="#d00000" d="M500 178l18 49 45-25-13 49 53 7-42 31 33 37-53-6 2 54-43-30-43 30 2-54-53 6 33-37-42-31 53-7-13-49 45 25z"/>
  <path d="M500 335v46" stroke="#d00000" stroke-width="9"/>
  <text x="500" y="610" text-anchor="middle" font-family="Georgia,serif" font-size="250" font-weight="700"><tspan fill="#0b1d36">A</tspan><tspan fill="#d4af37">C</tspan></text>
  <path d="M315 650h370" stroke="#d4af37" stroke-width="7"/><circle cx="500" cy="650" r="10" fill="#d4af37"/>
  <path d="M208 622q-62-98-15-216m599 216q62-98 15-216" fill="none" stroke="#d4af37" stroke-width="17" stroke-linecap="round"/>
</svg>
