<svg xmlns="http://www.w3.org/2000/svg" viewBox="0 0 900 260"><g fill="none" stroke="#0d1b2a" stroke-width="7" stroke-linecap="round" stroke-linejoin="round"><path d="M35 175C89 42 151 35 125 165c-13 65 25-9 48-56 15-31 24 55 43 48 29-11 39-91 62-94 22-2-5 99 28 94 36-6 51-91 77-88 24 3-9 82 24 85 29 2 51-69 78-67 24 2-7 66 20 71 35 7 69-74 92-67 22 7-9 60 18 66 30 7 60-56 85-51 25 5 0 50 31 50 40 0 69-39 108-29"/><path d="M78 207c205-30 428-26 744-9" stroke-width="4"/><path d="M248 42c82 26 155 23 229 4" stroke-width="4"/></g></svg>
